mtllib materials.mtl
v 3.485 -0.03999996 -4.14
v 3.485 -0.03999996 0.3
v 3.485 0.03999996 0.3
v 3.485 0.03999996 -4.14
v -3.485 -0.03999996 -4.14
v -3.485 0.03999996 -4.14
v -3.485 0.03999996 0.3
v -3.485 -0.03999996 0.3
vn 1 4.382923E-07 0
vn -1 7.564862E-07 -5.369789E-08
vn -6.816291E-17 -1 -8.812481E-09
vn 6.816291E-17 1 -8.55314E-09
vn -4.190269E-09 0 -1
vn 5.611987E-10 0 1
vt -0.3407217 0.3711788
vt 0.02057582 0.1131089
vt 0.02522573 0.1196187
vt -0.3360718 0.3776886
vt 0.3407222 0.3711782
vt 0.3360724 0.3776881
vt -0.02522545 0.1196185
vt -0.02057556 0.1131087
vt -0.3970115 0.3541622
vt -0.631438 -0.3022319
vt -0.2133045 -0.4515652
vt 0.02112191 0.2048289
vt 0.3970115 0.3541622
vt -0.02112191 0.2048289
vt 0.2133045 -0.4515652
vt 0.631438 -0.3022319
vt -0.00357771 0.2253956
vt -0.01073312 0.2289734
vt -0.322441 -0.3944424
vt -0.3152856 -0.3980201
vt 0.003577711 0.2253956
vt 0.3152856 -0.3980201
vt 0.322441 -0.3944424
vt 0.01073312 0.2289734
o group13150731
g mesh13150731
usemtl mat2
f 4/4/1 3/3/1 2/2/1 1/1/1
f 8/8/2 7/7/2 6/6/2 5/5/2
f 2/12/3 8/11/3 5/10/3 1/9/3
f 6/16/4 7/15/4 3/14/4 4/13/4
f 5/20/5 6/19/5 4/18/5 1/17/5
f 3/24/6 7/23/6 8/22/6 2/21/6
